<svg viewBox="0 0 1024 1024" xmlns="http://www.w3.org/2000/svg">
  <path d="M512 512m-64 0a64 64 0 1 0 128 0 64 64 0 1 0-128 0Z" />
  <path d="M320 512m-64 0a64 64 0 1 0 128 0 64 64 0 1 0-128 0Z" />
  <path d="M704 512m-64 0a64 64 0 1 0 128 0 64 64 0 1 0-128 0Z" />
  <path d="M512 704m-64 0a64 64 0 1 0 128 0 64 64 0 1 0-128 0Z" />
  <path d="M512 320m-64 0a64 64 0 1 0 128 0 64 64 0 1 0-128 0Z" />
  <path d="M512 576l0-128" stroke-width="48" />
  <path d="M448 512l-64 0" stroke-width="48" />
  <path d="M576 512l64 0" stroke-width="48" />
  <path d="M512 576l0 64" stroke-width="48" />
</svg> 